<?xml version="1.0" standalone="no"?>
<!DOCTYPE svg PUBLIC "-//W3C//DTD SVG 20010904//EN"
 "http://www.w3.org/TR/2001/REC-SVG-20010904/DTD/svg10.dtd">
<svg version="1.0" xmlns="http://www.w3.org/2000/svg"
 width="259.000000pt" height="123.000000pt" viewBox="0 0 259.000000 123.000000"
 preserveAspectRatio="xMidYMid meet">

<g transform="translate(0.000000,123.000000) scale(0.100000,-0.100000)"
fill="#000000" stroke="none">
<path d="M600 1061 c-21 -11 -56 -49 -90 -97 -36 -51 -65 -81 -83 -87 -26 -8
-33 -5 -71 32 -86 84 -208 83 -284 -3 -38 -44 -40 -56 -8 -56 54 0 144 -48
166 -89 7 -14 5 -31 -10 -63 -10 -24 -22 -63 -26 -86 -4 -26 -12 -42 -21 -42
-27 0 -90 -39 -126 -79 -35 -38 -37 -45 -37 -106 0 -37 7 -82 16 -103 l15 -37
25 50 c32 64 71 103 110 111 29 5 33 2 57 -39 15 -25 39 -60 54 -77 23 -27 26
-40 24 -86 -4 -91 35 -144 127 -175 18 -6 36 -9 39 -6 3 4 -9 23 -26 44 -34
41 -36 54 -20 102 11 30 12 31 72 31 79 0 123 13 178 50 56 37 80 38 122 0 34
-30 57 -87 57 -144 0 -14 4 -26 8 -26 11 0 88 81 101 107 31 61 -1 147 -82
219 l-56 49 6 63 6 62 57 0 c71 0 133 -21 184 -62 l39 -31 -7 44 c-19 119
-130 209 -258 209 -46 0 -52 3 -105 56 -53 53 -55 58 -38 70 26 19 30 18 75
-22 l39 -36 21 34 c54 89 29 177 -64 219 -53 24 -140 24 -186 0z m156 -56 c15
-23 15 -27 0 -50 -27 -41 -106 -24 -106 23 0 50 78 70 106 27z m-126 -144 c28
-11 67 -32 87 -47 l36 -27 -34 -29 c-74 -63 -75 -63 -111 -33 -28 24 -39 27
-84 23 l-52 -5 -16 61 c-8 33 -13 64 -10 68 10 16 133 8 184 -11z m-184 -61
l14 -62 -28 -27 c-16 -14 -37 -41 -46 -59 -9 -17 -19 -32 -22 -32 -30 0 -144
34 -144 43 0 25 61 117 94 142 40 30 108 67 113 61 3 -2 11 -32 19 -66z m353
-85 c21 -39 27 -67 29 -137 3 -67 1 -88 -9 -88 -7 0 -47 9 -88 20 l-76 21 0
80 0 79 45 40 c25 22 51 38 59 37 8 -1 26 -24 40 -52z m-205 4 c112 -88 41
-299 -101 -299 -111 0 -158 145 -81 253 46 65 131 86 182 46z m-295 -100 l61
-12 0 -46 c1 -25 7 -59 14 -76 12 -29 11 -32 -42 -92 -42 -48 -58 -60 -68 -52
-17 14 -50 101 -59 157 -9 58 3 145 20 138 7 -2 40 -10 74 -17z m505 -149 c26
-25 -51 -152 -123 -202 -30 -21 -59 -37 -65 -35 -6 2 -20 44 -33 93 l-22 89
24 18 c13 10 33 33 45 52 l21 33 72 -20 c40 -11 76 -24 81 -28z m-378 -47 c16
-10 45 -17 74 -16 l48 1 22 -89 c12 -48 19 -93 15 -100 -11 -17 -162 -7 -202
14 -18 10 -49 31 -68 48 l-35 31 56 64 c31 35 58 64 61 64 2 0 15 -8 29 -17z"/>
<path d="M1250 999 c-58 -23 -99 -84 -80 -120 17 -30 27 -23 33 23 4 30 14 50
33 67 16 14 30 19 32 13 2 -6 -20 -74 -49 -152 -29 -77 -50 -143 -46 -146 13
-13 26 9 58 98 l34 93 3 -98 3 -98 25 3 c26 3 26 2 88 152 9 22 18 37 21 34 4
-4 -5 -75 -20 -160 -4 -25 -2 -28 25 -28 17 0 30 3 30 8 0 4 9 66 20 137 26
174 26 175 -7 175 -26 0 -31 -8 -73 -110 -25 -60 -47 -110 -50 -110 -3 0 -3
52 -1 115 l3 115 -28 -1 c-16 0 -40 -5 -54 -10z"/>
<path d="M1526 974 c-7 -19 10 -44 29 -44 19 0 36 25 29 44 -3 9 -16 16 -29
16 -13 0 -26 -7 -29 -16z"/>
<path d="M2468 983 c-19 -5 -20 -7 -43 -118 -20 -101 -33 -133 -57 -146 -14
-7 -20 -6 -24 6 -6 14 5 90 22 153 6 19 3 22 -25 22 -24 0 -32 -5 -35 -22 -26
-139 -34 -158 -67 -158 -45 0 -9 145 38 156 34 9 28 24 -10 24 -57 0 -107 -69
-107 -149 0 -65 52 -92 96 -50 l22 21 11 -21 c14 -26 51 -27 82 -2 22 18 23
18 39 -2 12 -15 23 -18 42 -14 29 8 47 37 23 37 -8 0 -15 9 -15 20 0 19 34
191 46 233 5 17 -3 19 -38 10z"/>
<path d="M1497 822 c-9 -42 -17 -87 -17 -98 0 -43 46 -58 88 -28 20 14 22 14
22 0 0 -11 9 -16 28 -16 26 0 28 3 44 82 18 83 36 116 58 103 12 -7 10 -43 -6
-121 -11 -54 46 -85 88 -47 17 15 19 15 36 0 33 -30 90 -19 140 26 l22 21 -6
-33 c-7 -31 -6 -32 22 -29 30 3 31 5 54 120 12 61 35 82 57 52 15 -21 43 -11
43 16 0 27 -27 37 -53 20 -15 -9 -22 -10 -25 -1 -2 6 -16 11 -32 11 -26 0 -28
-3 -40 -65 -10 -54 -18 -70 -47 -96 -47 -41 -88 -38 -88 6 0 23 5 31 21 33 35
5 76 55 72 88 -3 26 -7 29 -42 32 -63 5 -97 -37 -121 -150 -4 -19 -12 -28 -25
-28 -23 0 -24 12 -8 91 9 46 9 61 -1 73 -16 19 -62 21 -79 4 -9 -9 -12 -9 -12
0 0 7 -13 12 -29 12 -27 0 -29 -3 -41 -62 -15 -80 -35 -118 -60 -118 -24 0
-25 21 -5 105 19 78 19 75 -13 75 -28 0 -29 -3 -45 -78z m453 36 c0 -12 -10
-32 -22 -45 -25 -27 -53 -31 -44 -7 3 9 6 19 6 23 0 16 42 61 51 56 5 -4 9
-16 9 -27z"/>
</g>
</svg>
